<?xml version="1.0" encoding="UTF-8" standalone="no"?>
<!-- Created with Inkscape (http://www.inkscape.org/) -->

<svg
   width="264.58331mm"
   height="58.978401mm"
   viewBox="0 0 264.58331 58.978399"
   version="1.1"
   id="svg470"
   inkscape:version="1.2 (dc2aedaf03, 2022-05-15)"
   sodipodi:docname="logo_gabba_preto_sem_ponta.svg"
   xmlns:inkscape="http://www.inkscape.org/namespaces/inkscape"
   xmlns:sodipodi="http://sodipodi.sourceforge.net/DTD/sodipodi-0.dtd"
   xmlns="http://www.w3.org/2000/svg"
   xmlns:svg="http://www.w3.org/2000/svg">
  <sodipodi:namedview
     id="namedview472"
     pagecolor="#505050"
     bordercolor="#ffffff"
     borderopacity="1"
     inkscape:showpageshadow="0"
     inkscape:pageopacity="0"
     inkscape:pagecheckerboard="1"
     inkscape:deskcolor="#505050"
     inkscape:document-units="mm"
     showgrid="false"
     inkscape:zoom="0.73584456"
     inkscape:cx="485.8363"
     inkscape:cy="67.269642"
     inkscape:window-width="1920"
     inkscape:window-height="1013"
     inkscape:window-x="-9"
     inkscape:window-y="-9"
     inkscape:window-maximized="1"
     inkscape:current-layer="layer1" />
  <defs
     id="defs467" />
  <g
     inkscape:label="Camada 1"
     inkscape:groupmode="layer"
     id="layer1"
     transform="translate(34.431057,-122.23616)">
    <g
       id="g221">
      <path
         id="rect7146-5-1-0-6-6-6-5-5-1-7-39-7-4-46"
         style="display:inline;fill:#000000;stroke:none;stroke-width:0.188499"
         d="m 9.7649443,138.08393 v 13.329 H -19.769374 v 4.68556 6.59746 2.71154 H -5.1785077 L -5.3286184,151.29061 9.9631444,165.39288 9.7649443,180.97525 H -34.431057 v -18.2793 -6.59746 -18.01456 z"
         sodipodi:nodetypes="ccccccccccccccc" />
      <path
         id="rect7146-5-1-0-6-6-6-5-5-1-7-3-74-2-8-5"
         style="display:inline;fill:#000000;stroke:none;stroke-width:0.188499"
         d="m 20.575046,180.97525 v -13.329 h 29.534319 v -4.68556 -6.59746 -2.71153 H 35.518498 l 0.150182,14.11688 -15.291762,-14.10228 0.198128,-15.58237 h 44.196002 v 18.2793 6.59746 18.01456 z"
         sodipodi:nodetypes="ccccccccccccccc" />
      <path
         id="rect7146-5-1-0-6-6-6-5-5-1-7-3-7-2-1-3-7"
         style="display:inline;fill:#000000;stroke:none;stroke-width:0.188499"
         d="m 75.143713,181.21456 v -13.329 H 104.67803 V 163.2 156.60254 153.891 H 90.087165 l 0.150182,14.11689 -15.291763,-14.10228 0.198129,-15.58237 h 44.195997 v 18.2793 6.59746 18.01456 z"
         sodipodi:nodetypes="ccccccccccccccc" />
      <path
         id="rect7146-5-1-0-6-6-6-5-5-1-7-3-7-1-4-14-6-4"
         style="display:inline;fill:#000000;stroke:none;stroke-width:0.188499"
         d="m 130.66961,180.97525 v -13.329 h 29.53432 v -4.68556 -6.59746 -2.71153 h -14.59087 l 0.15019,14.11688 -15.29177,-14.10228 0.19813,-15.58237 h 44.196 v 18.2793 6.59746 18.01456 z"
         sodipodi:nodetypes="ccccccccccccccc" />
      <path
         id="rect7146-5-1-0-6-6-6-5-5-1-7-3-7-1-7-7-50-2-5"
         style="display:inline;fill:#000000;stroke:none;stroke-width:0.188499"
         d="m 185.95627,180.97525 v -13.329 h 29.53432 v -4.68556 -6.59746 -2.71153 h -14.59086 l 0.15018,14.11688 -15.29177,-14.10228 0.19813,-15.58237 h 44.196 v 18.2793 6.59746 18.01456 z"
         sodipodi:nodetypes="ccccccccccccccc" />
      <path
         id="rect7146-5-1-0-6-6-6-5-5-1-7-39-7-4-4-1"
         style="display:inline;fill:#000000;stroke:none;stroke-width:0.188499"
         d="m 9.7649443,138.08393 v 13.329 H -19.769374 v 4.68556 6.59746 2.71154 H -5.1785077 L -5.3286184,151.29061 9.9631444,165.39288 9.7649443,180.97525 H -34.431057 v -18.2793 -6.59746 -18.01456 z"
         sodipodi:nodetypes="ccccccccccccccc" />
      <path
         id="rect7146-5-1-0-6-6-6-5-5-1-7-3-74-2-8-3-3"
         style="display:inline;fill:#000000;stroke:none;stroke-width:0.188499"
         d="m 20.575046,180.97525 v -13.329 h 29.534319 v -4.68556 -6.59746 -2.71153 H 35.518498 l 0.150182,14.11688 -15.291762,-14.10228 0.198128,-15.58237 h 44.196002 v 18.2793 6.59746 18.01456 z"
         sodipodi:nodetypes="ccccccccccccccc" />
      <path
         id="rect7146-5-1-0-6-6-6-5-5-1-7-3-7-2-1-3-2-5"
         style="display:inline;fill:#000000;stroke:none;stroke-width:0.188499"
         d="m 75.143713,181.21456 v -13.329 H 104.67803 V 163.2 156.60254 153.891 H 90.087165 l 0.150182,14.11689 -15.291763,-14.10228 0.198129,-15.58237 h 44.195997 v 18.2793 6.59746 18.01456 z"
         sodipodi:nodetypes="ccccccccccccccc" />
      <path
         id="rect7146-5-1-0-6-6-6-5-5-1-7-3-7-1-4-14-6-8-0"
         style="display:inline;fill:#000000;stroke:none;stroke-width:0.188499"
         d="m 130.66961,180.97525 v -13.329 h 29.53432 v -4.68556 -6.59746 -2.71153 h -14.59087 l 0.15019,14.11688 -15.29177,-14.10228 0.19813,-15.58237 h 44.196 v 18.2793 6.59746 18.01456 z"
         sodipodi:nodetypes="ccccccccccccccc" />
      <path
         id="rect7146-5-1-0-6-6-6-5-5-1-7-3-7-1-7-7-50-2-7-3"
         style="display:inline;fill:#000000;stroke:none;stroke-width:0.188499"
         d="m 185.95627,180.97525 v -13.329 h 29.53432 v -4.68556 -6.59746 -2.71153 h -14.59086 l 0.15018,14.11688 -15.29177,-14.10228 0.19813,-15.58237 h 44.196 v 18.2793 6.59746 18.01456 z"
         sodipodi:nodetypes="ccccccccccccccc" />
      <rect
         style="display:inline;fill:#000000;stroke:none;stroke-width:0.242844"
         id="rect9296-87-4-2-2-5-2-0-0"
         width="14.285935"
         height="21.831675"
         x="74.931587"
         y="122.23616" />
      <rect
         style="display:inline;fill:#000000;stroke:none;stroke-width:0.242844"
         id="rect9296-87-4-2-2-4-9-9-8-8"
         width="14.285935"
         height="21.831675"
         x="130.39493"
         y="122.23616" />
    </g>
  </g>
</svg>
