<?xml version="1.0" encoding="UTF-8" standalone="no"?>
<!-- Created with Inkscape (http://www.inkscape.org/) -->

<svg
   width="264.58334mm"
   height="74.946503mm"
   viewBox="0 0 264.58334 74.9465"
   version="1.1"
   id="svg470"
   inkscape:version="1.2 (dc2aedaf03, 2022-05-15)"
   sodipodi:docname="logo_gabba_cinza_80.svg"
   xmlns:inkscape="http://www.inkscape.org/namespaces/inkscape"
   xmlns:sodipodi="http://sodipodi.sourceforge.net/DTD/sodipodi-0.dtd"
   xmlns="http://www.w3.org/2000/svg"
   xmlns:svg="http://www.w3.org/2000/svg">
  <sodipodi:namedview
     id="namedview472"
     pagecolor="#505050"
     bordercolor="#ffffff"
     borderopacity="1"
     inkscape:showpageshadow="0"
     inkscape:pageopacity="0"
     inkscape:pagecheckerboard="1"
     inkscape:deskcolor="#505050"
     inkscape:document-units="mm"
     showgrid="false"
     inkscape:zoom="0.73584456"
     inkscape:cx="534.75968"
     inkscape:cy="180.0652"
     inkscape:window-width="1920"
     inkscape:window-height="1013"
     inkscape:window-x="-9"
     inkscape:window-y="-9"
     inkscape:window-maximized="1"
     inkscape:current-layer="layer1" />
  <defs
     id="defs467" />
  <g
     inkscape:label="Camada 1"
     inkscape:groupmode="layer"
     id="layer1"
     transform="translate(34.431071,-122.23615)">
    <g
       id="g558"
       transform="matrix(0.7124377,0,0,0.7124377,1810.6783,-897.04142)"
       style="fill:#333333">
      <g
         id="g11006"
         transform="translate(-128.93424,-91.652049)"
         style="display:inline;fill:#333333">
        <path
           id="rect7146-5-1-0-6-6-6-5-5-1-7-39-7-4-46"
           style="display:inline;fill:#333333;stroke:none;stroke-width:0.264583"
           d="m -2398.8845,1544.5866 v 18.709 h -41.4553 v 6.5768 9.2604 3.806 h 20.4802 l -0.2107,-19.8149 21.464,19.7944 -0.2782,21.8719 h -62.0349 v -25.6574 -9.2604 -25.2858 z"
           sodipodi:nodetypes="ccccccccccccccc" />
        <path
           id="rect7146-5-1-0-6-6-6-5-5-1-7-3-74-2-8-5"
           style="display:inline;fill:#333333;stroke:none;stroke-width:0.264583"
           d="m -2383.7111,1604.7902 v -18.709 h 41.4553 v -6.5768 -9.2604 -3.806 h -20.4802 l 0.2108,19.8149 -21.464,-19.7944 0.2781,-21.8719 h 62.0349 v 25.6574 9.2604 25.2858 z"
           sodipodi:nodetypes="ccccccccccccccc" />
        <path
           id="rect7146-5-1-0-6-6-6-5-5-1-7-3-7-2-1-3-7"
           style="display:inline;fill:#333333;stroke:none;stroke-width:0.264583"
           d="m -2307.1168,1605.1261 v -18.709 h 41.4553 v -6.5768 -9.2604 -3.806 h -20.4802 l 0.2108,19.8149 -21.464,-19.7944 0.2781,-21.8719 h 62.0349 v 25.6574 9.2604 25.2858 z"
           sodipodi:nodetypes="ccccccccccccccc" />
        <path
           id="rect7146-5-1-0-6-6-6-5-5-1-7-3-7-1-4-14-6-4"
           style="display:inline;fill:#333333;stroke:none;stroke-width:0.264583"
           d="m -2229.1789,1604.7902 v -18.709 h 41.4553 v -6.5768 -9.2604 -3.806 h -20.4802 l 0.2108,19.8149 -21.464,-19.7944 0.2781,-21.8719 h 62.0349 v 25.6574 9.2604 25.2858 z"
           sodipodi:nodetypes="ccccccccccccccc" />
        <path
           id="rect7146-5-1-0-6-6-6-5-5-1-7-3-7-1-7-7-50-2-5"
           style="display:inline;fill:#333333;stroke:none;stroke-width:0.264583"
           d="m -2151.5768,1604.7902 v -18.709 h 41.4553 v -6.5768 -9.2604 -3.806 h -20.4802 l 0.2108,19.8149 -21.464,-19.7944 0.2781,-21.8719 h 62.0349 v 25.6574 9.2604 25.2858 z"
           sodipodi:nodetypes="ccccccccccccccc" />
        <rect
           style="display:inline;fill:#333333;stroke:none;stroke-width:0.317973"
           id="rect9296-87-4-2-3-4-1-8"
           width="20.052189"
           height="26.666021"
           x="-2418.9258"
           y="1600.8734" />
        <path
           id="rect7146-5-1-0-6-6-6-5-5-1-7-39-7-4-4-1"
           style="display:inline;fill:#333333;stroke:none;stroke-width:0.264583"
           d="m -2398.8845,1544.5866 v 18.709 h -41.4553 v 6.5768 9.2604 3.806 h 20.4802 l -0.2107,-19.8149 21.464,19.7944 -0.2782,21.8719 h -62.0349 v -25.6574 -9.2604 -25.2858 z"
           sodipodi:nodetypes="ccccccccccccccc" />
        <path
           id="rect7146-5-1-0-6-6-6-5-5-1-7-3-74-2-8-3-3"
           style="display:inline;fill:#333333;stroke:none;stroke-width:0.264583"
           d="m -2383.7111,1604.7902 v -18.709 h 41.4553 v -6.5768 -9.2604 -3.806 h -20.4802 l 0.2108,19.8149 -21.464,-19.7944 0.2781,-21.8719 h 62.0349 v 25.6574 9.2604 25.2858 z"
           sodipodi:nodetypes="ccccccccccccccc" />
        <path
           id="rect7146-5-1-0-6-6-6-5-5-1-7-3-7-2-1-3-2-5"
           style="display:inline;fill:#333333;stroke:none;stroke-width:0.264583"
           d="m -2307.1168,1605.1261 v -18.709 h 41.4553 v -6.5768 -9.2604 -3.806 h -20.4802 l 0.2108,19.8149 -21.464,-19.7944 0.2781,-21.8719 h 62.0349 v 25.6574 9.2604 25.2858 z"
           sodipodi:nodetypes="ccccccccccccccc" />
        <path
           id="rect7146-5-1-0-6-6-6-5-5-1-7-3-7-1-4-14-6-8-0"
           style="display:inline;fill:#333333;stroke:none;stroke-width:0.264583"
           d="m -2229.1789,1604.7902 v -18.709 h 41.4553 v -6.5768 -9.2604 -3.806 h -20.4802 l 0.2108,19.8149 -21.464,-19.7944 0.2781,-21.8719 h 62.0349 v 25.6574 9.2604 25.2858 z"
           sodipodi:nodetypes="ccccccccccccccc" />
        <path
           id="rect7146-5-1-0-6-6-6-5-5-1-7-3-7-1-7-7-50-2-7-3"
           style="display:inline;fill:#333333;stroke:none;stroke-width:0.264583"
           d="m -2151.5768,1604.7902 v -18.709 h 41.4553 v -6.5768 -9.2604 -3.806 h -20.4802 l 0.2108,19.8149 -21.464,-19.7944 0.2781,-21.8719 h 62.0349 v 25.6574 9.2604 25.2858 z"
           sodipodi:nodetypes="ccccccccccccccc" />
        <rect
           style="display:inline;fill:#333333;stroke:none;stroke-width:0.317973"
           id="rect9296-87-4-2-3-4-1-2-6"
           width="20.052189"
           height="26.666021"
           x="-2418.9258"
           y="1600.8734" />
        <rect
           style="display:inline;fill:#333333;stroke:none;stroke-width:0.340864"
           id="rect9296-87-4-2-2-5-2-0-0"
           width="20.052189"
           height="30.643627"
           x="-2307.4146"
           y="1522.3422" />
        <rect
           style="display:inline;fill:#333333;stroke:none;stroke-width:0.340864"
           id="rect9296-87-4-2-2-4-9-9-8-8"
           width="20.052189"
           height="30.643627"
           x="-2229.5645"
           y="1522.3422" />
      </g>
    </g>
  </g>
</svg>
